# Blender v2.69 (sub 0) OBJ File: 'scene.blend'
# www.blender.org
mtllib roof.mtl
v 2.026993 -2.366754 2.398749
v 0.000000 -2.208895 3.689645
v 2.026993 2.366754 2.398749
v 0.000000 2.208895 3.689645
v -1.467223 1.642708 2.671592
v -0.471171 0.947461 3.251374
v 1.953167 -2.339396 2.319027
v 1.953167 2.339395 2.319027
v -0.950250 0.953258 2.954626
v -1.426617 0.959634 2.674564
v 0.000000 1.580565 3.622116
v 0.000000 0.946462 3.548831
v 0.000000 0.315075 3.503395
v 0.000000 -0.315075 3.503395
v 0.000000 -0.946462 3.548831
v 0.000000 -1.580565 3.622116
v 1.946776 -1.656294 2.399348
v 1.879622 -0.956315 2.399849
v 1.860107 -0.311738 2.399994
v 1.860107 0.311738 2.399994
v 1.879622 0.956315 2.399849
v 1.946776 1.656294 2.399348
v -0.475406 0.315231 3.226931
v -0.950303 0.315810 2.950437
v -1.414817 0.314970 2.675011
v -0.475406 -0.315231 3.226931
v -0.950303 -0.315810 2.950437
v -1.414817 -0.314970 2.675011
v 1.881650 -1.640784 2.319494
v 1.821779 -0.951268 2.319885
v 1.804380 -0.310854 2.319996
v 1.804380 0.310854 2.319996
v 1.821779 0.951268 2.319885
v 1.881650 1.640785 2.319494
v -0.471171 -0.947462 3.251374
v -0.950250 -0.953258 2.954626
v -1.426617 -0.959633 2.674564
v -0.456597 -1.583811 3.285508
v -0.950067 -1.605542 2.955109
v -1.467223 -1.642707 2.671592
v 1.515727 -2.330087 2.667696
v 0.949849 -2.255143 2.952329
v 0.439189 -2.214717 3.314240
v 1.515727 2.330087 2.667696
v 0.949849 2.255143 2.952329
v 0.439189 2.214717 3.314240
v -1.469231 -2.314982 2.582148
v -1.469231 2.314982 2.582148
v -0.439189 2.214717 3.314240
v -0.949849 2.255143 2.952329
v -1.515727 2.330087 2.667696
v -0.439189 -2.214717 3.314240
v 1.469231 2.314982 2.582148
v 1.469231 -2.314982 2.582148
v -0.949849 -2.255143 2.952329
v -1.515727 -2.330087 2.667696
v 1.467223 -1.642707 2.671592
v 0.950067 -1.605542 2.955109
v 0.456597 -1.583811 3.285508
v 1.426617 -0.959633 2.674564
v 0.950250 -0.953258 2.954626
v 0.471171 -0.947462 3.251374
v 1.414817 -0.314970 2.675011
v 0.950303 -0.315810 2.950437
v 0.475406 -0.315231 3.226931
v 1.414817 0.314970 2.675011
v 0.950303 0.315810 2.950437
v 0.475406 0.315231 3.226931
v 1.426617 0.959634 2.674564
v 0.950250 0.953258 2.954626
v 0.471171 0.947461 3.251374
v 1.467223 1.642708 2.671592
v 0.950067 1.605542 2.955109
v 0.456597 1.583811 3.285508
v -1.881650 1.640785 2.319494
v -1.821779 0.951268 2.319885
v -1.804380 0.310854 2.319996
v -1.804380 -0.310854 2.319996
v -1.821779 -0.951268 2.319885
v -1.881650 -1.640784 2.319494
v -1.946776 1.656294 2.399348
v -1.879622 0.956315 2.399849
v -1.860107 0.311738 2.399994
v -1.860107 -0.311738 2.399994
v -1.879622 -0.956315 2.399849
v -1.946776 -1.656294 2.399348
v 1.423135 1.633994 2.585155
v 1.384544 0.956636 2.587351
v 1.373330 0.314389 2.587525
v 1.373330 -0.314389 2.587525
v 1.384544 -0.956636 2.587351
v 1.423135 -1.633994 2.585155
v -1.953166 2.339395 2.319027
v -1.953167 -2.339396 2.319027
v -2.026993 2.366754 2.398749
v -2.026993 -2.366754 2.398749
v -0.950067 1.605542 2.955109
v -0.456597 1.583811 3.285508
v -1.423135 1.633994 2.585155
v -1.384544 0.956636 2.587351
v -1.373330 0.314389 2.587525
v -1.373330 -0.314389 2.587525
v -1.384544 -0.956636 2.587351
v -1.423135 -1.633994 2.585155
v 0.000000 -1.580565 3.622116
v 0.000000 -2.208895 3.689645
v 1.946776 1.656294 2.399348
v 2.026993 2.366754 2.398749
v 1.881650 1.640785 2.319494
v 1.953167 2.339395 2.319027
v 0.000000 1.580565 3.622116
v 0.000000 2.208895 3.689645
v 0.000000 0.946462 3.548831
v 0.000000 0.315075 3.503395
v 0.000000 -0.315075 3.503395
v 0.000000 -0.946462 3.548831
v 1.946776 -1.656294 2.399348
v 2.026993 -2.366754 2.398749
v 1.879622 -0.956315 2.399849
v 1.860107 -0.311738 2.399994
v 1.860107 0.311738 2.399994
v 1.879622 0.956315 2.399849
v 1.881650 -1.640784 2.319494
v 1.953167 -2.339396 2.319027
v 1.821779 -0.951268 2.319885
v 1.804380 -0.310854 2.319996
v 1.804380 0.310854 2.319996
v 1.821779 0.951268 2.319885
v -1.881650 1.640785 2.319494
v -1.821779 0.951268 2.319885
v -1.804380 0.310854 2.319996
v -1.804380 -0.310854 2.319996
v -1.821779 -0.951268 2.319885
v -1.881650 -1.640784 2.319494
v -1.953167 -2.339396 2.319027
v -1.946776 1.656294 2.399348
v -1.879622 0.956315 2.399849
v -1.860107 0.311738 2.399994
v -1.860107 -0.311738 2.399994
v -1.879622 -0.956315 2.399849
v -1.946776 -1.656294 2.399348
v -2.026993 -2.366754 2.398749
v -1.953166 2.339395 2.319027
v -2.026993 2.366754 2.398749
vt 2.733772 -0.389455
vt 2.733777 -1.174795
vt 3.627260 -1.174786
vt 3.627257 -0.389453
vt -0.840228 -1.175239
vt -0.840216 -0.410807
vt -1.733738 -0.410789
vt -1.733748 -1.175249
vt -1.733749 -1.174847
vt -2.627274 -1.174851
vt -2.627275 -1.175256
vt 0.053284 -1.175227
vt 0.053297 -0.410825
vt 0.946789 -1.175215
vt 0.946802 -0.410843
vt -2.627273 -0.389479
vt -1.733752 -0.389479
vt -0.840230 -1.174838
vt -0.840236 -0.389476
vt 0.053282 -1.174828
vt 0.053275 -0.389471
vt 0.946788 -1.174816
vt 0.946780 -0.389466
vt 1.840286 -1.174806
vt 1.840279 -0.389460
vt 1.840288 -1.175203
vt 1.840300 -0.410861
vt 2.733779 -1.175192
vt 2.733790 -0.410877
vt 3.627263 -1.175181
vt 3.627275 -0.410891
vt 1.840276 0.395887
vt 2.733770 0.395886
vt 1.840277 1.181234
vt 2.733772 1.181229
vt 0.946777 0.395885
vt 0.946778 1.181235
vt 0.053272 0.395884
vt 0.053273 1.181241
vt -0.840238 0.395885
vt -0.840236 1.181244
vt -1.733752 0.395885
vt -1.733750 1.181248
vt 2.733777 1.966573
vt 3.627262 1.181223
vt 3.627267 1.966565
vt 3.627258 0.395884
vt -2.627270 0.395888
vt -2.627265 1.181254
vt -2.627269 -0.410775
vt -2.627261 1.966617
vt -1.733745 1.966611
vt -0.840231 1.966605
vt 0.053278 1.966596
vt 0.946783 1.966587
vt 1.840282 1.966581
vn 0.486312 -0.025971 0.873379
vn 0.492346 -0.039501 0.869502
vn 0.480567 -0.041437 0.875978
vn 0.473870 -0.028385 0.880137
vn 0.517701 -0.023639 -0.855235
vn 0.517955 -0.023186 -0.855094
vn 0.501051 -0.037293 -0.864614
vn 0.499948 -0.037520 -0.865242
vn 0.776758 0.078498 -0.624888
vn 0.762463 0.082591 -0.641739
vn 0.781123 0.077217 -0.619584
vn 0.525898 -0.005772 -0.850528
vn 0.525903 -0.005753 -0.850525
vn 0.525898 0.005772 -0.850528
vn 0.525903 0.005753 -0.850525
vn 0.473870 0.028385 0.880137
vn 0.480567 0.041437 0.875978
vn 0.492347 0.039501 0.869502
vn 0.486312 0.025971 0.873379
vn 0.513698 0.025144 0.857603
vn 0.507431 0.017335 0.861507
vn 0.523679 0.006169 0.851893
vn 0.516434 0.004852 0.856288
vn 0.523679 -0.006169 0.851893
vn 0.516434 -0.004852 0.856288
vn 0.513698 -0.025144 0.857603
vn 0.507431 -0.017335 0.861507
vn 0.517701 0.023639 -0.855235
vn 0.517955 0.023186 -0.855094
vn 0.499948 0.037520 -0.865242
vn 0.501051 0.037292 -0.864614
vn 0.489927 0.039574 -0.870865
vn -0.515030 -0.013581 0.857021
vn -0.518387 -0.012696 0.855037
vn -0.486312 -0.025971 0.873379
vn -0.507431 -0.017335 0.861507
vn -0.534684 -0.035432 0.844295
vn -0.573962 -0.034974 0.818110
vn 0.762464 -0.082591 -0.641738
vn 0.776759 -0.078498 -0.624887
vn 0.781123 -0.077217 -0.619584
vn 0.805043 -0.049686 -0.591132
vn 0.806169 -0.046983 -0.589817
vn 0.818097 -0.011905 -0.574957
vn 0.818151 -0.011647 -0.574885
vn 0.818097 0.011905 -0.574957
vn 0.818151 0.011647 -0.574885
vn 0.805043 0.049686 -0.591132
vn 0.806170 0.046983 -0.589816
vn -0.509171 -0.006165 0.860622
vn -0.516434 -0.004852 0.856288
vn -0.509812 -0.015656 0.860134
vn -0.509171 0.006165 0.860622
vn -0.516434 0.004852 0.856288
vn -0.509812 0.015656 0.860134
vn -0.515030 0.013581 0.857021
vn -0.507431 0.017335 0.861507
vn -0.534684 0.035432 0.844295
vn -0.518387 0.012696 0.855037
vn -0.486312 0.025971 0.873379
vn -0.573962 0.034974 0.818110
vn 0.594040 -0.056979 0.802415
vn 0.573962 -0.034974 0.818110
vn 0.595539 -0.030194 0.802759
vn 0.621735 -0.051150 0.781556
vn 0.518387 -0.012696 0.855037
vn 0.514684 -0.010750 0.857313
vn -0.514684 0.010750 0.857313
vn -0.473870 0.028385 0.880137
vn -0.595539 0.030194 0.802758
vn -0.499948 -0.037520 -0.865242
vn -0.489927 -0.039574 -0.870865
vn -0.501051 -0.037293 -0.864614
vn 0.621735 0.051151 0.781556
vn 0.595539 0.030194 0.802759
vn 0.573962 0.034974 0.818110
vn 0.594040 0.056979 0.802415
vn 0.514684 0.010750 0.857313
vn 0.518387 0.012696 0.855037
vn 0.534684 0.035432 0.844295
vn 0.541549 0.054639 0.838892
vn 0.515030 0.013581 0.857021
vn 0.509812 0.015656 0.860134
vn 0.510574 0.023012 0.859526
vn 0.509171 0.006165 0.860622
vn 0.509812 -0.015656 0.860134
vn 0.510575 -0.023012 0.859525
vn 0.509171 -0.006165 0.860622
vn 0.534684 -0.035432 0.844295
vn 0.541549 -0.054639 0.838892
vn 0.515030 -0.013581 0.857021
vn 0.489927 -0.039574 -0.870865
vn -0.514684 -0.010750 0.857313
vn -0.473870 -0.028385 0.880137
vn -0.595539 -0.030194 0.802759
vn -0.805043 0.049686 -0.591132
vn -0.806170 0.046983 -0.589816
vn -0.781122 0.077217 -0.619585
vn -0.776758 0.078498 -0.624889
vn -0.818097 0.011905 -0.574957
vn -0.818152 0.011647 -0.574885
vn -0.818097 -0.011905 -0.574957
vn -0.818151 -0.011647 -0.574885
vn -0.805043 -0.049686 -0.591132
vn -0.806169 -0.046983 -0.589817
vn -0.776758 -0.078498 -0.624888
vn -0.781123 -0.077217 -0.619584
vn -0.762463 -0.082590 -0.641739
vn -0.492346 -0.039501 0.869503
vn -0.513698 -0.025144 0.857603
vn -0.523679 -0.006169 0.851893
vn -0.523679 0.006169 0.851893
vn -0.513698 0.025144 0.857603
vn -0.492346 0.039501 0.869502
vn -0.480567 0.041437 0.875978
vn -0.762462 0.082591 -0.641740
vn -0.480567 -0.041437 0.875979
vn -0.489927 0.039574 -0.870865
vn -0.499948 0.037520 -0.865242
vn -0.501051 0.037292 -0.864614
vn -0.517701 0.023639 -0.855235
vn -0.517955 0.023186 -0.855094
vn -0.525898 0.005772 -0.850528
vn -0.525903 0.005753 -0.850525
vn -0.525898 -0.005772 -0.850528
vn -0.525903 -0.005753 -0.850525
vn -0.517701 -0.023639 -0.855235
vn -0.517955 -0.023186 -0.855094
vn -0.541549 -0.054639 0.838892
vn -0.594040 -0.056979 0.802415
vn -0.510575 -0.023012 0.859525
vn -0.510574 0.023012 0.859526
vn -0.541549 0.054639 0.838892
vn -0.594040 0.056979 0.802415
vn -0.621735 0.051151 0.781556
vn -0.621735 -0.051150 0.781556
usemtl roof
s 1
f 72/1/1 22/2/2 3/3/3 44/4/4
f 79/5/5 103/6/6 104/7/7 80/8/8
f 17/9/9 1/10/10 7/11/10 29/8/11
f 78/12/12 102/13/13 103/6/6 79/5/5
f 77/14/14 101/15/15 102/13/13 78/12/12
f 41/16/16 118/10/17 117/9/18 57/17/19
f 57/17/19 117/9/18 18/18/20 60/19/21
f 60/19/21 18/18/20 19/20/22 63/21/23
f 63/21/23 19/20/22 20/22/24 66/23/25
f 66/23/25 20/22/24 21/24/26 69/25/27
f 69/25/27 21/24/26 22/2/2 72/1/1
f 76/26/28 100/27/29 101/15/15 77/14/14
f 75/28/30 99/29/31 100/27/29 76/26/28
f 93/30/32 48/31/32 99/29/31 75/28/30
f 9/32/33 97/33/34 5/1/35 10/25/36
f 6/34/37 98/35/38 97/33/34 9/32/33
f 108/3/39 107/2/40 34/28/41 8/30/39
f 107/2/40 122/24/42 33/26/43 34/28/41
f 122/24/42 121/22/44 32/14/45 33/26/43
f 121/22/44 120/20/46 31/12/47 32/14/45
f 120/20/46 119/18/48 30/5/49 31/12/47
f 119/18/48 17/9/9 29/8/11 30/5/49
f 24/36/50 9/32/33 10/25/36 25/23/51
f 23/37/52 6/34/37 9/32/33 24/36/50
f 27/38/53 24/36/50 25/23/51 28/21/54
f 26/39/55 23/37/52 24/36/50 27/38/53
f 36/40/56 27/38/53 28/21/54 37/19/57
f 35/41/58 26/39/55 27/38/53 36/40/56
f 39/42/59 36/40/56 37/19/57 40/17/60
f 38/43/61 35/41/58 36/40/56 39/42/59
f 11/44/62 74/35/63 46/45/64 4/46/65
f 74/35/63 73/33/66 45/47/67 46/45/64
f 73/33/66 72/1/1 44/4/4 45/47/67
f 55/48/68 39/42/59 40/17/60 56/16/69
f 52/49/70 38/43/61 39/42/59 55/48/68
f 123/8/71 124/11/72 54/50/72 92/7/73
f 2/51/74 43/49/75 59/43/76 16/52/77
f 43/49/75 42/48/78 58/42/79 59/43/76
f 42/48/78 41/16/16 57/17/19 58/42/79
f 16/52/77 59/43/76 62/41/80 15/53/81
f 59/43/76 58/42/79 61/40/82 62/41/80
f 58/42/79 57/17/19 60/19/21 61/40/82
f 15/53/81 62/41/80 65/39/83 14/54/84
f 62/41/80 61/40/82 64/38/85 65/39/83
f 61/40/82 60/19/21 63/21/23 64/38/85
f 14/54/84 65/39/83 68/37/86 13/55/87
f 65/39/83 64/38/85 67/36/88 68/37/86
f 64/38/85 63/21/23 66/23/25 67/36/88
f 13/55/87 68/37/86 71/34/89 12/56/90
f 68/37/86 67/36/88 70/32/91 71/34/89
f 67/36/88 66/23/25 69/25/27 70/32/91
f 12/56/90 71/34/89 74/35/63 11/44/62
f 71/34/89 70/32/91 73/33/66 74/35/63
f 70/32/91 69/25/27 72/1/1 73/33/66
f 80/8/8 104/7/7 47/50/92 94/11/92
f 97/33/34 50/47/93 51/4/94 5/1/35
f 98/35/38 49/45/95 50/47/93 97/33/34
f 140/18/96 133/5/97 134/8/98 141/9/99
f 139/20/100 132/12/101 133/5/97 140/18/96
f 138/22/102 131/14/103 132/12/101 139/20/100
f 137/24/104 130/26/105 131/14/103 138/22/102
f 136/2/106 129/28/107 130/26/105 137/24/104
f 144/3/108 143/30/108 129/28/107 136/2/106
f 10/25/36 5/1/35 81/2/109 82/24/110
f 25/23/51 10/25/36 82/24/110 83/22/111
f 28/21/54 25/23/51 83/22/111 84/20/112
f 37/19/57 28/21/54 84/20/112 85/18/113
f 40/17/60 37/19/57 85/18/113 86/9/114
f 56/16/69 40/17/60 86/9/114 96/10/115
f 141/9/99 134/8/98 135/11/116 142/10/116
f 5/1/35 51/4/94 95/3/117 81/2/109
f 110/30/118 109/28/119 87/29/120 53/31/118
f 109/28/119 128/26/121 88/27/122 87/29/120
f 128/26/121 127/14/123 89/15/124 88/27/122
f 127/14/123 126/12/125 90/13/126 89/15/124
f 126/12/125 125/5/127 91/6/128 90/13/126
f 125/5/127 123/8/71 92/7/73 91/6/128
f 113/56/129 111/44/130 98/35/38 6/34/37
f 114/55/131 113/56/129 6/34/37 23/37/52
f 115/54/132 114/55/131 23/37/52 26/39/55
f 116/53/133 115/54/132 26/39/55 35/41/58
f 105/52/134 116/53/133 35/41/58 38/43/61
f 106/51/135 105/52/134 38/43/61 52/49/70
f 111/44/130 112/46/136 49/45/95 98/35/38
