# Blender v2.69 (sub 0) OBJ File: 'scene.blend'
# www.blender.org
mtllib big_lamp.mtl
v -0.000000 -0.035000 0.000000
v -0.000000 -0.084516 0.021948
v -0.000000 -0.123002 0.060058
v -0.000000 -0.145436 0.109355
v -0.000000 -0.148891 0.163408
v -0.000000 -0.132914 0.215160
v -0.000000 -0.099593 0.257859
v -0.000000 -0.053274 0.285932
v -0.000000 0.053269 0.285933
v -0.000000 0.099589 0.257860
v -0.000000 0.132911 0.215162
v -0.000000 0.148888 0.163410
v -0.000000 0.035000 0.000000
v -0.013394 -0.032336 0.000000
v -0.032343 -0.078082 0.021948
v -0.047071 -0.113639 0.060058
v -0.055656 -0.134366 0.109355
v -0.056978 -0.137557 0.163408
v -0.050864 -0.122797 0.215160
v -0.038112 -0.092012 0.257859
v -0.020387 -0.049218 0.285932
v 0.020385 0.049214 0.285933
v 0.038111 0.092008 0.257860
v 0.050863 0.122794 0.215162
v 0.056977 0.137555 0.163410
v 0.055656 0.134364 0.109358
v 0.047071 0.113638 0.060060
v 0.032343 0.078082 0.021949
v 0.013394 0.032336 0.000000
v -0.024749 -0.024749 0.000000
v -0.059762 -0.059762 0.021948
v -0.086976 -0.086976 0.060058
v -0.102839 -0.102839 0.109355
v -0.105282 -0.105282 0.163408
v -0.093985 -0.093985 0.215160
v -0.070423 -0.070423 0.257859
v -0.037670 -0.037670 0.285932
v -0.000002 -0.000002 0.295715
v 0.037667 0.037667 0.285933
v 0.070420 0.070420 0.257860
v 0.093983 0.093982 0.215162
v 0.105280 0.105280 0.163410
v 0.102838 0.102838 0.109358
v 0.086975 0.086975 0.060060
v 0.059761 0.059761 0.021949
v 0.024749 0.024749 0.000000
v -0.032336 -0.013394 0.000000
v -0.078082 -0.032343 0.021948
v -0.113639 -0.047071 0.060058
v -0.134366 -0.055656 0.109355
v -0.137557 -0.056978 0.163408
v -0.122797 -0.050864 0.215160
v -0.092012 -0.038112 0.257859
v -0.049218 -0.020387 0.285932
v 0.049214 0.020385 0.285933
v 0.092008 0.038111 0.257860
v 0.122794 0.050863 0.215162
v 0.137555 0.056977 0.163410
v 0.134364 0.055655 0.109358
v 0.113638 0.047070 0.060060
v 0.078082 0.032343 0.021949
v 0.032336 0.013394 0.000000
v -0.035000 0.000000 0.000000
v -0.084516 0.000000 0.021948
v -0.123002 0.000000 0.060058
v -0.145436 0.000000 0.109355
v -0.148891 0.000000 0.163408
v -0.132914 0.000000 0.215160
v -0.099593 0.000000 0.257859
v -0.053274 0.000000 0.285932
v 0.053269 -0.000000 0.285933
v 0.099589 -0.000000 0.257860
v 0.132911 -0.000000 0.215162
v 0.148888 -0.000000 0.163410
v 0.145435 -0.000000 0.109358
v 0.123001 -0.000000 0.060060
v 0.084515 -0.000000 0.021949
v 0.035000 -0.000000 0.000000
v -0.032336 0.013394 0.000000
v -0.078082 0.032343 0.021948
v -0.113639 0.047071 0.060058
v -0.134366 0.055656 0.109355
v -0.137557 0.056978 0.163408
v -0.122797 0.050864 0.215160
v -0.092012 0.038113 0.257859
v -0.049218 0.020387 0.285932
v 0.049214 -0.020385 0.285933
v 0.092008 -0.038111 0.257860
v 0.122794 -0.050863 0.215162
v 0.137555 -0.056977 0.163410
v 0.134364 -0.055656 0.109358
v 0.113638 -0.047071 0.060060
v 0.078082 -0.032343 0.021949
v 0.032336 -0.013394 0.000000
v -0.024749 0.024749 0.000000
v -0.059762 0.059762 0.021948
v -0.086975 0.086976 0.060058
v -0.102839 0.102839 0.109355
v -0.105282 0.105282 0.163408
v -0.093985 0.093985 0.215160
v -0.070423 0.070423 0.257859
v -0.037670 0.037670 0.285932
v 0.037667 -0.037667 0.285933
v 0.070420 -0.070420 0.257860
v 0.093982 -0.093983 0.215162
v 0.105280 -0.105280 0.163410
v 0.102838 -0.102838 0.109358
v 0.086975 -0.086975 0.060060
v 0.059761 -0.059761 0.021949
v 0.024749 -0.024749 0.000000
v -0.013394 0.032336 0.000000
v -0.032343 0.078082 0.021948
v -0.047071 0.113639 0.060058
v -0.055656 0.134366 0.109355
v -0.056978 0.137557 0.163408
v -0.050864 0.122797 0.215160
v -0.038112 0.092012 0.257859
v -0.020387 0.049218 0.285932
v 0.020385 -0.049214 0.285933
v 0.038111 -0.092008 0.257860
v 0.050863 -0.122794 0.215162
v 0.056977 -0.137555 0.163410
v 0.055655 -0.134364 0.109358
v 0.047070 -0.113638 0.060060
v 0.032343 -0.078082 0.021949
v 0.013394 -0.032336 0.000000
v 0.000000 0.084516 0.021948
v 0.000000 0.123002 0.060058
v 0.000000 0.145436 0.109355
vn 0.000000 -0.676473 0.736442
vn 0.000000 -0.374706 0.927122
vn -0.143376 -0.346171 0.927122
vn -0.258858 -0.624958 0.736442
vn 0.000000 -0.993347 0.114994
vn 0.000000 -0.891110 0.453719
vn -0.341014 -0.823298 0.453719
vn -0.380139 -0.917722 0.114963
vn 0.000000 -0.827479 -0.561480
vn 0.000000 -0.971282 -0.237831
vn -0.371685 -0.897336 -0.237831
vn -0.316660 -0.764489 -0.561480
vn 0.000013 -0.405232 -0.914214
vn 0.000000 -0.578661 -0.815546
vn -0.221442 -0.534623 -0.815546
vn -0.155075 -0.374383 -0.914215
vn 0.000000 0.891110 0.453719
vn 0.341014 0.823267 0.453719
vn 0.380139 0.917722 0.114994
vn 0.000000 0.993347 0.114994
vn 0.000000 0.374676 0.927122
vn 0.143376 0.346171 0.927122
vn 0.258858 0.624958 0.736473
vn 0.000000 0.676443 0.736473
vn -0.702414 -0.702414 0.114963
vn -0.686789 -0.686789 -0.237831
vn 0.316660 0.764489 -0.561449
vn 0.585101 0.585101 -0.561449
vn 0.409192 0.409192 -0.815516
vn 0.221473 0.534623 -0.815516
vn -0.585101 -0.585101 -0.561480
vn -0.409192 -0.409192 -0.815546
vn 0.702414 0.702414 0.114994
vn 0.686789 0.686789 -0.237831
vn 0.371685 0.897336 -0.237831
vn 0.478317 0.478317 0.736473
vn 0.630116 0.630116 0.453719
vn -0.264962 -0.264962 0.927122
vn -0.478317 -0.478317 0.736442
vn -0.630116 -0.630116 0.453719
vn 0.286555 0.286555 -0.914206
vn 0.155094 0.374394 -0.914207
vn -0.286541 -0.286540 -0.914215
vn 0.264931 0.264931 0.927122
vn -0.917722 -0.380139 0.114963
vn -0.897336 -0.371685 -0.237831
vn 0.764489 0.316660 -0.561449
vn 0.534623 0.221442 -0.815516
vn -0.764489 -0.316660 -0.561480
vn -0.534623 -0.221442 -0.815546
vn 0.917722 0.380139 0.114994
vn 0.897366 0.371685 -0.237831
vn 0.624958 0.258858 0.736473
vn 0.823298 0.341014 0.453719
vn -0.346171 -0.143376 0.927122
vn -0.624958 -0.258858 0.736442
vn -0.823298 -0.341014 0.453719
vn 0.374402 0.155082 -0.914206
vn -0.374383 -0.155074 -0.914215
vn 0.346171 0.143376 0.927122
vn -0.993347 0.000000 0.114963
vn -0.971282 0.000000 -0.237831
vn 0.827479 0.000000 -0.561449
vn 0.578692 0.000000 -0.815516
vn -0.827479 0.000000 -0.561480
vn -0.578661 0.000000 -0.815546
vn 0.993347 0.000000 0.114994
vn 0.971282 0.000000 -0.237831
vn 0.676443 0.000000 0.736473
vn 0.891110 0.000000 0.453719
vn -0.374706 0.000000 0.927122
vn -0.676473 0.000000 0.736442
vn -0.891110 0.000000 0.453719
vn 0.405250 -0.000000 -0.914206
vn -0.405230 0.000000 -0.914215
vn 0.374676 0.000000 0.927122
vn -0.917722 0.380139 0.114963
vn -0.897336 0.371685 -0.237831
vn 0.764489 -0.316660 -0.561449
vn 0.534623 -0.221442 -0.815516
vn -0.764489 0.316660 -0.561480
vn -0.534623 0.221442 -0.815546
vn 0.917722 -0.380139 0.114994
vn 0.897366 -0.371685 -0.237831
vn 0.624958 -0.258858 0.736473
vn 0.823267 -0.341014 0.453719
vn -0.346171 0.143376 0.927122
vn -0.624958 0.258858 0.736442
vn -0.823298 0.341014 0.453719
vn 0.374402 -0.155083 -0.914206
vn -0.374383 0.155075 -0.914215
vn 0.346171 -0.143376 0.927122
vn -0.702414 0.702414 0.114963
vn -0.686789 0.686789 -0.237831
vn 0.585101 -0.585101 -0.561449
vn 0.409192 -0.409192 -0.815516
vn -0.585101 0.585101 -0.561480
vn -0.409192 0.409192 -0.815546
vn 0.702414 -0.702414 0.114994
vn 0.686789 -0.686789 -0.237831
vn 0.478317 -0.478317 0.736473
vn 0.630116 -0.630116 0.453719
vn -0.264931 0.264962 0.927122
vn -0.478317 0.478317 0.736442
vn -0.630116 0.630116 0.453719
vn 0.286554 -0.286555 -0.914206
vn -0.286540 0.286541 -0.914215
vn 0.264931 -0.264931 0.927122
vn -0.380108 0.917753 0.114994
vn -0.371685 0.897366 -0.237831
vn 0.316660 -0.764489 -0.561449
vn 0.221473 -0.534623 -0.815516
vn -0.316660 0.764489 -0.561480
vn -0.221442 0.534623 -0.815546
vn 0.380139 -0.917722 0.114994
vn 0.371715 -0.897336 -0.237831
vn 0.258858 -0.624958 0.736473
vn 0.341014 -0.823267 0.453719
vn -0.143376 0.346171 0.927122
vn -0.258858 0.624958 0.736442
vn -0.340983 0.823298 0.453719
vn 0.155093 -0.374394 -0.914207
vn -0.155074 0.374383 -0.914215
vn 0.143376 -0.346141 0.927122
vn 0.000000 0.827479 -0.561480
vn 0.000000 0.578661 -0.815546
vn 0.000000 0.971282 -0.237831
vn 0.000000 0.000000 1.000000
vn 0.000013 0.405233 -0.914214
usemtl lamp
s 1
f 7//1 8//2 21//3 20//4
f 5//5 6//6 19//7 18//8
f 3//9 4//10 17//11 16//12
f 1//13 2//14 15//15 14//16
f 11//17 24//18 25//19 12//20
f 9//21 22//22 23//23 10//24
f 6//6 7//1 20//4 19//7
f 4//10 5//5 18//8 17//11
f 2//14 3//9 16//12 15//15
f 10//24 23//23 24//18 11//17
f 17//11 18//8 34//25 33//26
f 27//27 44//28 45//29 28//30
f 15//15 16//12 32//31 31//32
f 25//19 42//33 43//34 26//35
f 23//23 40//36 41//37 24//18
f 20//4 21//3 37//38 36//39
f 18//8 19//7 35//40 34//25
f 28//30 45//29 46//41 29//42
f 16//12 17//11 33//26 32//31
f 26//35 43//34 44//28 27//27
f 14//16 15//15 31//32 30//43
f 24//18 41//37 42//33 25//19
f 22//22 39//44 40//36 23//23
f 19//7 20//4 36//39 35//40
f 33//26 34//25 51//45 50//46
f 44//28 60//47 61//48 45//29
f 31//32 32//31 49//49 48//50
f 42//33 58//51 59//52 43//34
f 40//36 56//53 57//54 41//37
f 36//39 37//38 54//55 53//56
f 34//25 35//40 52//57 51//45
f 45//29 61//48 62//58 46//41
f 32//31 33//26 50//46 49//49
f 43//34 59//52 60//47 44//28
f 30//43 31//32 48//50 47//59
f 41//37 57//54 58//51 42//33
f 39//44 55//60 56//53 40//36
f 35//40 36//39 53//56 52//57
f 50//46 51//45 67//61 66//62
f 60//47 76//63 77//64 61//48
f 48//50 49//49 65//65 64//66
f 58//51 74//67 75//68 59//52
f 56//53 72//69 73//70 57//54
f 53//56 54//55 70//71 69//72
f 51//45 52//57 68//73 67//61
f 61//48 77//64 78//74 62//58
f 49//49 50//46 66//62 65//65
f 59//52 75//68 76//63 60//47
f 47//59 48//50 64//66 63//75
f 57//54 73//70 74//67 58//51
f 55//60 71//76 72//69 56//53
f 52//57 53//56 69//72 68//73
f 66//62 67//61 83//77 82//78
f 76//63 92//79 93//80 77//64
f 64//66 65//65 81//81 80//82
f 74//67 90//83 91//84 75//68
f 72//69 88//85 89//86 73//70
f 69//72 70//71 86//87 85//88
f 67//61 68//73 84//89 83//77
f 77//64 93//80 94//90 78//74
f 65//65 66//62 82//78 81//81
f 75//68 91//84 92//79 76//63
f 63//75 64//66 80//82 79//91
f 73//70 89//86 90//83 74//67
f 71//76 87//92 88//85 72//69
f 68//73 69//72 85//88 84//89
f 82//78 83//77 99//93 98//94
f 92//79 108//95 109//96 93//80
f 80//82 81//81 97//97 96//98
f 90//83 106//99 107//100 91//84
f 88//85 104//101 105//102 89//86
f 85//88 86//87 102//103 101//104
f 83//77 84//89 100//105 99//93
f 93//80 109//96 110//106 94//90
f 81//81 82//78 98//94 97//97
f 91//84 107//100 108//95 92//79
f 79//91 80//82 96//98 95//107
f 89//86 105//102 106//99 90//83
f 87//92 103//108 104//101 88//85
f 84//89 85//88 101//104 100//105
f 98//94 99//93 115//109 114//110
f 108//95 124//111 125//112 109//96
f 96//98 97//97 113//113 112//114
f 106//99 122//115 123//116 107//100
f 104//101 120//117 121//118 105//102
f 101//104 102//103 118//119 117//120
f 99//93 100//105 116//121 115//109
f 109//96 125//112 126//122 110//106
f 97//97 98//94 114//110 113//113
f 107//100 123//116 124//111 108//95
f 95//107 96//98 112//114 111//123
f 105//102 121//118 122//115 106//99
f 103//108 119//124 120//117 104//101
f 100//105 101//104 117//120 116//121
f 112//114 113//113 128//125 127//126
f 113//113 114//110 129//127 128//125
f 38//128 22//22 9//21
f 127//126 28//30 29//42 13//129
f 129//127 26//35 27//27 128//125
f 8//2 38//128 21//3
f 128//125 27//27 28//30 127//126
f 12//20 25//19 26//35 129//127
f 38//128 39//44 22//22
f 21//3 38//128 37//38
f 38//128 55//60 39//44
f 37//38 38//128 54//55
f 38//128 71//76 55//60
f 54//55 38//128 70//71
f 38//128 87//92 71//76
f 70//71 38//128 86//87
f 38//128 103//108 87//92
f 86//87 38//128 102//103
f 38//128 119//124 103//108
f 102//103 38//128 118//119
f 114//110 115//109 12//20 129//127
f 124//111 3//9 2//14 125//112
f 122//115 5//5 4//10 123//116
f 120//117 7//1 6//6 121//118
f 38//128 8//2 119//124
f 117//120 118//119 9//21 10//24
f 115//109 116//121 11//17 12//20
f 125//112 2//14 1//13 126//122
f 123//116 4//10 3//9 124//111
f 111//123 112//114 127//126 13//129
f 121//118 6//6 5//5 122//115
f 119//124 8//2 7//1 120//117
f 118//119 38//128 9//21
f 116//121 117//120 10//24 11//17
