# Blender v2.69 (sub 0) OBJ File: '21090.blend'
# www.blender.org
mtllib fence.mtl
v 0.025000 -0.050000 0.000000
v -0.025000 -0.050000 0.000000
v -0.025000 0.050000 0.000000
v 0.025000 0.050000 0.000000
v 0.025000 -0.050000 1.000000
v -0.025000 -0.050000 1.000000
v -0.025000 0.050000 1.000000
v 0.025000 0.050000 1.000000
v 2.500000 0.070000 0.900000
v 2.500000 0.050000 0.900000
v -2.500000 0.050000 0.900000
v -2.500000 0.070000 0.900000
v 2.500000 0.070000 1.000000
v 2.500000 0.050000 1.000000
v -2.500000 0.050000 1.000000
v -2.500000 0.070000 1.000000
v 1.025000 -0.050000 0.000000
v 0.975000 -0.050000 0.000000
v 0.975000 0.050000 0.000000
v 1.025000 0.050000 0.000000
v 1.025000 -0.050000 1.000000
v 0.975000 -0.050000 1.000000
v 0.975000 0.050000 1.000000
v 1.025000 0.050000 1.000000
v -0.975000 -0.050000 0.000000
v -1.025000 -0.050000 0.000000
v -1.025000 0.050000 0.000000
v -0.975000 0.050000 0.000000
v -0.975000 -0.050000 1.000000
v -1.025000 -0.050000 1.000000
v -1.025000 0.050000 1.000000
v -0.975000 0.050000 1.000000
v 2.500000 0.070000 0.450000
v 2.500000 0.050000 0.450000
v -2.500000 0.050000 0.450000
v -2.500000 0.070000 0.450000
v 2.500000 0.070000 0.550000
v 2.500000 0.050000 0.550000
v -2.500000 0.050000 0.550000
v -2.500000 0.070000 0.550000
v -1.975000 -0.050000 0.000000
v -2.025000 -0.050000 0.000000
v -2.025000 0.050000 0.000000
v -1.975000 0.050000 0.000000
v -1.975000 -0.050000 1.000000
v -2.025000 -0.050000 1.000000
v -2.025000 0.050000 1.000000
v -1.975000 0.050000 1.000000
v 2.025000 -0.050000 0.000000
v 1.975000 -0.050000 0.000000
v 1.975000 0.050000 0.000000
v 2.025000 0.050000 0.000000
v 2.025000 -0.050000 1.000000
v 1.975000 -0.050000 1.000000
v 1.975000 0.050000 1.000000
v 2.025000 0.050000 1.000000
vn 0.000000 -1.000000 0.000000
vn -1.000000 0.000000 0.000000
vn -0.000000 1.000000 0.000000
vn 1.000000 -0.000000 0.000000
vn 0.000000 0.000000 -1.000000
vn 0.000000 0.000000 1.000000
vn -1.000000 -0.000001 0.000000
usemtl wood
s off
f 5//1 6//1 2//1 1//1
f 6//2 7//2 3//2 2//2
f 7//3 8//3 4//3 3//3
f 8//4 5//4 1//4 4//4
f 1//5 2//5 3//5 4//5
f 8//6 7//6 6//6 5//6
f 13//4 14//4 10//4 9//4
f 14//1 15//1 11//1 10//1
f 15//2 16//2 12//2 11//2
f 16//3 13//3 9//3 12//3
f 9//5 10//5 11//5 12//5
f 16//6 15//6 14//6 13//6
f 21//1 22//1 18//1 17//1
f 22//7 23//7 19//7 18//7
f 23//3 24//3 20//3 19//3
f 24//4 21//4 17//4 20//4
f 17//5 18//5 19//5 20//5
f 24//6 23//6 22//6 21//6
f 29//1 30//1 26//1 25//1
f 30//7 31//7 27//7 26//7
f 31//3 32//3 28//3 27//3
f 32//4 29//4 25//4 28//4
f 25//5 26//5 27//5 28//5
f 32//6 31//6 30//6 29//6
f 37//4 38//4 34//4 33//4
f 38//1 39//1 35//1 34//1
f 39//2 40//2 36//2 35//2
f 40//3 37//3 33//3 36//3
f 33//5 34//5 35//5 36//5
f 40//6 39//6 38//6 37//6
f 45//1 46//1 42//1 41//1
f 46//2 47//2 43//2 42//2
f 47//3 48//3 44//3 43//3
f 48//4 45//4 41//4 44//4
f 41//5 42//5 43//5 44//5
f 48//6 47//6 46//6 45//6
f 53//1 54//1 50//1 49//1
f 54//7 55//7 51//7 50//7
f 55//3 56//3 52//3 51//3
f 56//4 53//4 49//4 52//4
f 49//5 50//5 51//5 52//5
f 56//6 55//6 54//6 53//6
