# Blender v2.69 (sub 0) OBJ File: 'scene.blend'
# www.blender.org
mtllib lamp_post.mtl
v 0.000000 0.035000 0.000000
v -0.013394 0.032336 0.000000
v -0.024749 0.024749 0.000000
v -0.032336 0.013394 0.000000
v -0.035000 -0.000000 0.000000
v -0.032336 -0.013394 0.000000
v -0.024749 -0.024749 0.000000
v -0.013394 -0.032336 0.000000
v -0.000000 -0.035000 0.000000
v 0.013394 -0.032336 0.000000
v 0.024749 -0.024749 0.000000
v 0.032336 -0.013394 0.000000
v 0.035000 0.000000 0.000000
v 0.032336 0.013394 0.000000
v 0.024749 0.024749 0.000000
v 0.013394 0.032336 0.000000
v 0.000000 0.035000 2.000000
v -0.013394 0.032336 2.000000
v -0.024749 0.024749 2.000000
v -0.032336 0.013394 2.000000
v -0.035000 -0.000000 2.000000
v -0.032336 -0.013394 2.000000
v -0.024749 -0.024749 2.000000
v -0.013394 -0.032336 2.000000
v -0.000000 -0.035000 2.000000
v 0.013394 -0.032336 2.000000
v 0.024749 -0.024749 2.000000
v 0.032336 -0.013394 2.000000
v 0.035000 0.000000 2.000000
v 0.032336 0.013394 2.000000
v 0.024749 0.024749 2.000000
v 0.013394 0.032336 2.000000
vn -0.382683 0.923880 0.000000
vn 0.000000 1.000000 0.000000
vn 0.382684 0.923880 0.000000
vn 0.707107 0.707107 0.000000
vn 0.923880 0.382684 0.000000
vn 1.000000 0.000000 0.000000
vn 0.000000 -1.000000 0.000000
vn -0.382683 -0.923880 0.000000
vn 0.923880 -0.382683 0.000000
vn 0.707107 -0.707107 0.000000
vn -0.707107 -0.707107 0.000000
vn -0.923879 -0.382684 0.000000
vn 0.382683 -0.923880 0.000000
vn -1.000000 -0.000000 0.000000
vn -0.923879 0.382684 0.000000
vn -0.707107 0.707107 0.000000
usemtl chrome
s 1
f 10//1 9//2 25//2 26//1
f 8//3 7//4 23//4 24//3
f 6//5 5//6 21//6 22//5
f 1//7 16//8 32//8 17//7
f 4//9 3//10 19//10 20//9
f 15//11 14//12 30//12 31//11
f 2//13 1//7 17//7 18//13
f 13//14 12//15 28//15 29//14
f 11//16 10//1 26//1 27//16
f 9//2 8//3 24//3 25//2
f 7//4 6//5 22//5 23//4
f 5//6 4//9 20//9 21//6
f 16//8 15//11 31//11 32//8
f 3//10 2//13 18//13 19//10
f 14//12 13//14 29//14 30//12
f 12//15 11//16 27//16 28//15
