# Blender v2.69 (sub 0) OBJ File: 'scene.blend'
# www.blender.org
mtllib path.mtl
v -4.000011 17.404671 0.009984
v -5.000000 17.400000 0.010000
v -5.999989 17.395329 0.010016
v -4.001458 17.020092 0.008679
v -5.001400 17.030706 0.010405
v -6.001342 17.041321 0.012131
v -4.008155 16.635351 0.008156
v -5.007910 16.657246 0.011574
v -6.007664 16.679140 0.014992
v -4.018269 16.251408 0.008326
v -5.017849 16.279942 0.013438
v -6.017429 16.308475 0.018550
v -4.030031 15.868434 0.009102
v -5.029537 15.899121 0.015926
v -6.029043 15.929809 0.022750
v -4.041736 15.486631 0.010403
v -5.041293 15.515110 0.018970
v -6.040851 15.543589 0.027538
v -4.051733 15.106230 0.012148
v -5.051438 15.128233 0.022501
v -6.051142 15.150236 0.032854
v -4.058429 14.727489 0.014261
v -5.058291 14.738815 0.026447
v -6.058153 14.750142 0.038634
v -4.060277 14.350686 0.016666
v -5.060172 14.347183 0.030741
v -6.060067 14.343680 0.044817
v -4.055780 13.976110 0.019293
v -5.055399 13.953663 0.035313
v -6.055019 13.931215 0.051334
v -4.043491 13.604047 0.022069
v -5.042295 13.558578 0.040093
v -6.041098 13.513110 0.058118
v -4.022011 13.234767 0.024927
v -5.019176 13.162256 0.045012
v -6.016341 13.089746 0.065097
v -3.989983 12.868536 0.027820
v -4.984364 12.765022 0.050000
v -5.978745 12.661509 0.072180
v -3.946041 12.505556 0.032004
v -4.936174 12.367165 0.053993
v -5.926308 12.228773 0.075982
v -3.888932 12.145897 0.034435
v -4.872929 11.969034 0.056111
v -5.856926 11.792171 0.077788
v -3.817363 11.789553 0.035355
v -4.792948 11.570956 0.056563
v -5.768533 11.352360 0.077770
v -3.730025 11.436440 0.034976
v -4.694550 11.173254 0.055556
v -5.659076 10.910068 0.076135
v -3.625564 11.086371 0.033502
v -4.576056 10.776252 0.053299
v -5.526547 10.466132 0.073096
v -3.502553 10.739054 0.031123
v -4.435784 10.380274 0.050000
v -5.369015 10.021494 0.068877
v -3.359454 10.394107 0.028027
v -4.272054 9.985644 0.045868
v -5.184655 9.577182 0.063709
v -3.194601 10.051094 0.024389
v -4.083187 9.592688 0.041111
v -4.971772 9.134281 0.057833
v -3.006185 9.709561 0.020385
v -3.867500 9.201729 0.035938
v -4.728816 8.693896 0.051490
v -2.792252 9.369083 0.016186
v -3.623315 8.813091 0.030556
v -4.454378 8.257099 0.044925
v -2.550722 9.029311 0.011965
v -3.348950 8.427100 0.025174
v -4.147177 7.824889 0.038382
v -2.267439 8.675570 0.007700
v -3.042725 8.044079 0.020000
v -3.818010 7.412588 0.032300
v -1.973481 8.321135 0.004709
v -2.749743 7.690822 0.015818
v -3.526005 7.060509 0.026928
v -1.684998 7.958078 0.002491
v -2.474898 7.344925 0.012559
v -3.264797 6.731771 0.022627
v -1.413413 7.599792 0.001104
v -2.217686 7.005600 0.010106
v -3.021959 6.411408 0.019108
v -1.158326 7.245396 0.000433
v -1.977607 6.672058 0.008342
v -2.796887 6.098719 0.016252
v -0.919371 6.894042 0.000361
v -1.754157 6.343509 0.007151
v -2.588943 5.792976 0.013941
v -0.696213 6.544913 0.000770
v -1.546834 6.019164 0.006414
v -2.397455 5.493415 0.012058
v -0.488553 6.197246 0.001540
v -1.355137 5.698235 0.006015
v -2.221721 5.199224 0.010491
v -0.296113 5.850327 0.002548
v -1.178563 5.379932 0.005838
v -2.061013 4.909537 0.009128
v -0.118637 5.503512 0.003669
v -1.016610 5.063467 0.005765
v -1.914583 4.623422 0.007861
v 0.044128 5.156223 0.004775
v -0.868776 4.748050 0.005679
v -1.781680 4.339878 0.006582
v 0.192443 4.807950 0.005737
v -0.734558 4.432893 0.005463
v -1.661560 4.057836 0.005188
v 0.326593 4.458245 0.006436
v -0.613455 4.117206 0.005000
v -1.553503 3.776167 0.003564
v 0.446902 4.106715 0.005971
v -0.504963 3.800199 0.004573
v -1.456827 3.493682 0.003175
v 0.553743 3.752991 0.005891
v -0.408578 3.481079 0.004502
v -1.370899 3.209168 0.003114
v 0.647551 3.396715 0.006138
v -0.323797 3.159059 0.004727
v -1.295145 2.921403 0.003316
v 0.728816 3.037520 0.006642
v -0.250118 2.833347 0.005185
v -1.229052 2.629174 0.003729
v 0.798084 2.675009 0.007334
v -0.187037 2.503155 0.005817
v -1.172158 2.331300 0.004301
v 0.855950 2.308736 0.008146
v -0.134052 2.167691 0.006563
v -1.124054 2.026646 0.004979
v 0.903043 1.938196 0.009010
v -0.090661 1.826167 0.007360
v -1.084364 1.714139 0.005709
v 0.940018 1.562818 0.009858
v -0.056359 1.477793 0.008148
v -1.052737 1.392769 0.006438
v 0.967540 1.181965 0.010627
v -0.030645 1.121779 0.008867
v -1.028831 1.061594 0.007108
v 0.986276 0.794938 0.011251
v -0.013016 0.757336 0.009456
v -1.012307 0.719733 0.007661
v 0.996880 0.400982 0.011670
v -0.002968 0.383672 0.009854
v -1.002817 0.366362 0.008038
v 0.999977 0.006484 0.011821
v 0.000000 0.000000 0.010000
v -0.999977 -0.006484 0.008179
v 1.001880 -0.359323 0.011821
v 0.001931 -0.369228 0.010000
v -0.998018 -0.379133 0.008179
v 1.007440 -0.740117 0.011821
v 0.007591 -0.757370 0.010000
v -0.992259 -0.774623 0.008179
v 1.015440 -1.141368 0.011821
v 0.015660 -1.162248 0.010000
v -0.984121 -1.183128 0.008179
v 1.024592 -1.560425 0.011820
v 0.024820 -1.581682 0.010000
v -0.974952 -1.602940 0.008179
v 1.033576 -1.994801 0.011820
v 0.033752 -2.013495 0.010000
v -0.966071 -2.032189 0.008179
v 1.041047 -2.442132 0.011820
v 0.041138 -2.455508 0.010000
v -0.958771 -2.468883 0.008179
v 1.045642 -2.900152 0.011820
v 0.045658 -2.905542 0.010000
v -0.954326 -2.910933 0.008179
v 1.045979 -3.366673 0.011820
v 0.045994 -3.361420 0.010000
v -0.953990 -3.356168 0.008179
v 1.040653 -3.839582 0.011820
v 0.040827 -3.820963 0.010000
v -0.958998 -3.802344 0.008179
v 1.028230 -4.316833 0.011820
v 0.028839 -4.281991 0.010000
v -0.970552 -4.247150 0.008179
v 1.007243 -4.796445 0.011820
v 0.008710 -4.742329 0.010000
v -0.989823 -4.688212 0.008179
v 0.976174 -5.276507 0.011820
v -0.020878 -5.199796 0.010000
v -1.017930 -5.123084 0.008179
v 0.933440 -5.755175 0.011820
v -0.061244 -5.652214 0.010000
v -1.055928 -5.549252 0.008179
v 0.877372 -6.230674 0.011820
v -0.113706 -6.097404 0.010000
v -1.104784 -5.964134 0.008179
v 0.806182 -6.701301 0.011820
v -0.179584 -6.533189 0.010000
v -1.165351 -6.365077 0.008179
v 0.717927 -7.165407 0.011820
v -0.260197 -6.957390 0.010000
v -1.238320 -6.749373 0.008179
v 0.610459 -7.621379 0.011820
v -0.356862 -7.367828 0.010000
v -1.324182 -7.114278 0.008179
v 0.481369 -8.067587 0.011820
v -0.470898 -7.762326 0.010000
v -1.423166 -7.457066 0.008179
v 0.327934 -8.502290 0.011820
v -0.603626 -8.138704 0.010000
v -1.535185 -7.775119 0.008179
v 0.147083 -8.923487 0.011820
v -0.756362 -8.494785 0.010000
v -1.659807 -8.066084 0.008179
v -0.064574 -9.328687 0.011820
v -0.930426 -8.828390 0.010000
v -1.796279 -8.328094 0.008179
v -0.310589 -9.714616 0.011820
v -1.127137 -9.137341 0.010000
v -1.943685 -8.560065 0.008179
v -0.594326 -10.076917 0.011820
v -1.347814 -9.419457 0.010000
v -2.101302 -8.761998 0.008180
v -0.917405 -10.409122 0.011820
v -1.593775 -9.672563 0.010000
v -2.270144 -8.936003 0.008180
vn 0.000875 0.001130 0.999999
vn 0.001740 0.002106 0.999969
vn 0.001727 -0.000195 0.999999
vn 0.000868 -0.001197 0.999999
vn 0.000882 0.003481 0.999994
vn 0.001771 0.004456 0.999989
vn 0.003479 0.003967 0.999969
vn 0.003458 0.001682 0.999993
vn 0.003553 0.006281 0.999974
vn 0.005249 0.005585 0.999969
vn 0.005211 0.003322 0.999981
vn 0.005336 0.007873 0.999955
vn 0.007019 0.006989 0.999939
vn 0.006976 0.004760 0.999964
vn 0.007109 0.009270 0.999932
vn 0.008789 0.008240 0.999908
vn 0.008745 0.006027 0.999944
vn 0.008868 0.010502 0.999906
vn 0.010559 0.009369 0.999878
vn 0.010515 0.007154 0.999919
vn 0.010608 0.011599 0.999876
vn 0.012299 0.010376 0.999847
vn 0.012282 0.008170 0.999891
vn 0.012327 0.012590 0.999845
vn 0.014008 0.011292 0.999817
vn 0.014045 0.009102 0.999860
vn 0.014024 0.013499 0.999811
vn 0.015748 0.012177 0.999786
vn 0.015802 0.009975 0.999825
vn 0.015699 0.014351 0.999774
vn 0.017426 0.013001 0.999756
vn 0.017552 0.010814 0.999787
vn 0.017349 0.015169 0.999734
vn 0.019105 0.013825 0.999695
vn 0.019287 0.011657 0.999746
vn 0.018968 0.015962 0.999693
vn 0.020325 0.013398 0.999695
vn 0.020392 0.012664 0.999712
vn 0.020285 0.014127 0.999694
vn 0.020722 0.010590 0.999725
vn 0.020634 0.011260 0.999724
vn 0.020817 0.009956 0.999734
vn 0.020753 0.006958 0.999756
vn 0.020653 0.007624 0.999758
vn 0.020880 0.006367 0.999762
vn 0.020814 0.003998 0.999756
vn 0.020697 0.004626 0.999775
vn 0.020975 0.003390 0.999774
vn 0.020875 0.001617 0.999756
vn 0.020721 0.002236 0.999783
vn 0.021052 0.001027 0.999778
vn 0.020875 -0.000153 0.999756
vn 0.020682 0.000433 0.999786
vn 0.021066 -0.000743 0.999778
vn 0.020753 -0.001373 0.999756
vn 0.020534 -0.000811 0.999789
vn 0.020972 -0.001948 0.999778
vn 0.020478 -0.002075 0.999786
vn 0.020233 -0.001535 0.999794
vn 0.020722 -0.002627 0.999782
vn 0.019990 -0.002289 0.999786
vn 0.019737 -0.001789 0.999804
vn 0.020274 -0.002830 0.999790
vn 0.019288 -0.002106 0.999786
vn 0.019015 -0.001630 0.999818
vn 0.019594 -0.002615 0.999805
vn 0.018342 -0.001587 0.999817
vn 0.018042 -0.001127 0.999837
vn 0.018659 -0.002050 0.999824
vn 0.017121 -0.000763 0.999847
vn 0.016811 -0.000349 0.999859
vn 0.017456 -0.001214 0.999847
vn 0.015595 0.000031 0.999878
vn 0.015032 0.000759 0.999887
vn 0.016187 -0.000678 0.999869
vn 0.013794 0.000580 0.999878
vn 0.012992 0.001635 0.999914
vn 0.014666 -0.000449 0.999892
vn 0.011963 0.000946 0.999908
vn 0.011149 0.002058 0.999936
vn 0.012850 -0.000136 0.999917
vn 0.010224 0.001282 0.999939
vn 0.009394 0.002436 0.999953
vn 0.011103 0.000120 0.999938
vn 0.008576 0.001495 0.999939
vn 0.007741 0.002735 0.999966
vn 0.009448 0.000293 0.999955
vn 0.007019 0.001648 0.999969
vn 0.006201 0.002933 0.999976
vn 0.007894 0.000362 0.999969
vn 0.005585 0.001648 0.999969
vn 0.004780 0.003004 0.999984
vn 0.006446 0.000304 0.999979
vn 0.004273 0.001495 0.999969
vn 0.003483 0.002922 0.999990
vn 0.005110 0.000093 0.999987
vn 0.003082 0.001190 0.999969
vn 0.002312 0.002659 0.999994
vn 0.003885 -0.000295 0.999992
vn 0.001984 0.000641 0.999969
vn 0.001262 0.002189 0.999997
vn 0.002766 -0.000884 0.999996
vn 0.001007 -0.000061 0.999969
vn 0.000326 0.001487 0.999999
vn 0.001747 -0.001695 0.999997
vn 0.000122 -0.001068 0.999969
vn -0.000516 0.000539 1.000000
vn 0.000815 -0.002755 0.999996
vn -0.000580 -0.001648 0.999969
vn -0.000925 -0.000824 0.999999
vn -0.000277 -0.002514 0.999997
vn -0.001099 -0.001129 0.999969
vn -0.001102 -0.001130 0.999999
vn -0.001099 -0.001141 0.999999
vn -0.001373 -0.000153 0.999969
vn -0.001399 -0.000158 0.999999
vn -0.001400 -0.000153 0.999999
vn -0.001587 0.000641 0.999969
vn -0.001613 0.000657 0.999998
vn -0.001614 0.000661 0.999999
vn -0.001740 0.001282 0.999969
vn -0.001758 0.001293 0.999998
vn -0.001759 0.001298 0.999998
vn -0.001831 0.001740 0.999969
vn -0.001844 0.001744 0.999997
vn -0.001845 0.001749 0.999997
vn -0.001862 0.001984 0.999969
vn -0.001886 0.002007 0.999996
vn -0.001886 0.002011 0.999996
vn -0.001892 0.002075 0.999969
vn -0.001896 0.002083 0.999996
vn -0.001896 0.002087 0.999996
vn -0.001862 0.001953 0.999969
vn -0.001885 0.001979 0.999996
vn -0.001886 0.001982 0.999996
vn -0.001862 0.001679 0.999969
vn -0.001865 0.001704 0.999997
vn -0.001865 0.001706 0.999997
vn -0.001831 0.001251 0.999969
vn -0.001844 0.001270 0.999997
vn -0.001844 0.001272 0.999997
vn -0.001801 0.000671 0.999969
vn -0.001828 0.000691 0.999998
vn -0.001801 0.000153 0.999969
vn -0.001822 0.000179 0.999998
vn -0.001822 0.000178 0.999998
vn -0.001801 0.000000 0.999969
vn -0.001820 -0.000018 0.999998
vn -0.001801 -0.000031 0.999969
vn -0.001820 -0.000031 0.999998
vn -0.001820 -0.000038 0.999998
vn -0.001820 -0.000039 0.999998
vn -0.001820 -0.000034 0.999998
vn -0.001820 -0.000024 0.999998
vn -0.001820 -0.000010 0.999998
vn -0.001820 0.000010 0.999998
vn -0.001801 0.000031 0.999969
vn -0.001820 0.000034 0.999998
vn -0.001801 0.000061 0.999969
vn -0.001819 0.000063 0.999998
vn -0.001801 0.000092 0.999969
vn -0.001818 0.000099 0.999998
vn -0.001818 0.000098 0.999998
vn -0.001801 0.000122 0.999969
vn -0.001815 0.000140 0.999998
vn -0.001801 0.000183 0.999969
vn -0.001811 0.000187 0.999998
vn -0.001801 0.000214 0.999969
vn -0.001804 0.000243 0.999998
vn -0.001770 0.000305 0.999969
vn -0.001795 0.000306 0.999998
vn -0.001770 0.000366 0.999969
vn -0.001781 0.000379 0.999998
vn -0.001740 0.000458 0.999969
vn -0.001761 0.000462 0.999998
vn -0.001761 0.000461 0.999998
vn -0.001709 0.000549 0.999969
vn -0.001734 0.000556 0.999998
vn -0.001734 0.000555 0.999998
vn -0.001679 0.000641 0.999969
vn -0.001696 0.000662 0.999998
vn -0.001617 0.000763 0.999969
vn -0.001645 0.000781 0.999998
vn -0.001645 0.000780 0.999998
vn -0.001556 0.000885 0.999969
vn -0.001576 0.000911 0.999998
vn -0.001577 0.000910 0.999998
vn -0.001465 0.001038 0.999969
vn -0.001486 0.001051 0.999998
vn -0.001487 0.001050 0.999998
vn -0.001343 0.001190 0.999969
vn -0.001371 0.001197 0.999998
vn -0.001372 0.001196 0.999998
vn -0.001308 0.001271 0.999998
vn -0.001307 0.001271 0.999998
vn -0.001308 0.001270 0.999998
usemtl gravel
s 1
f 2//1 5//2 4//3 1//4
f 3//5 6//6 5//2 2//1
f 5//2 8//7 7//8 4//3
f 6//6 9//9 8//7 5//2
f 8//7 11//10 10//11 7//8
f 9//9 12//12 11//10 8//7
f 11//10 14//13 13//14 10//11
f 12//12 15//15 14//13 11//10
f 14//13 17//16 16//17 13//14
f 15//15 18//18 17//16 14//13
f 17//16 20//19 19//20 16//17
f 18//18 21//21 20//19 17//16
f 20//19 23//22 22//23 19//20
f 21//21 24//24 23//22 20//19
f 23//22 26//25 25//26 22//23
f 24//24 27//27 26//25 23//22
f 26//25 29//28 28//29 25//26
f 27//27 30//30 29//28 26//25
f 29//28 32//31 31//32 28//29
f 30//30 33//33 32//31 29//28
f 32//31 35//34 34//35 31//32
f 33//33 36//36 35//34 32//31
f 35//34 38//37 37//38 34//35
f 36//36 39//39 38//37 35//34
f 38//37 41//40 40//41 37//38
f 39//39 42//42 41//40 38//37
f 41//40 44//43 43//44 40//41
f 42//42 45//45 44//43 41//40
f 44//43 47//46 46//47 43//44
f 45//45 48//48 47//46 44//43
f 47//46 50//49 49//50 46//47
f 48//48 51//51 50//49 47//46
f 50//49 53//52 52//53 49//50
f 51//51 54//54 53//52 50//49
f 53//52 56//55 55//56 52//53
f 54//54 57//57 56//55 53//52
f 56//55 59//58 58//59 55//56
f 57//57 60//60 59//58 56//55
f 59//58 62//61 61//62 58//59
f 60//60 63//63 62//61 59//58
f 62//61 65//64 64//65 61//62
f 63//63 66//66 65//64 62//61
f 65//64 68//67 67//68 64//65
f 66//66 69//69 68//67 65//64
f 68//67 71//70 70//71 67//68
f 69//69 72//72 71//70 68//67
f 71//70 74//73 73//74 70//71
f 72//72 75//75 74//73 71//70
f 74//73 77//76 76//77 73//74
f 75//75 78//78 77//76 74//73
f 77//76 80//79 79//80 76//77
f 78//78 81//81 80//79 77//76
f 80//79 83//82 82//83 79//80
f 81//81 84//84 83//82 80//79
f 83//82 86//85 85//86 82//83
f 84//84 87//87 86//85 83//82
f 86//85 89//88 88//89 85//86
f 87//87 90//90 89//88 86//85
f 89//88 92//91 91//92 88//89
f 90//90 93//93 92//91 89//88
f 92//91 95//94 94//95 91//92
f 93//93 96//96 95//94 92//91
f 95//94 98//97 97//98 94//95
f 96//96 99//99 98//97 95//94
f 98//97 101//100 100//101 97//98
f 99//99 102//102 101//100 98//97
f 101//100 104//103 103//104 100//101
f 102//102 105//105 104//103 101//100
f 104//103 107//106 106//107 103//104
f 105//105 108//108 107//106 104//103
f 107//106 110//109 109//110 106//107
f 108//108 111//111 110//109 107//106
f 110//109 113//112 112//113 109//110
f 111//111 114//114 113//112 110//109
f 113//112 116//115 115//116 112//113
f 114//114 117//117 116//115 113//112
f 116//115 119//118 118//119 115//116
f 117//117 120//120 119//118 116//115
f 119//118 122//121 121//122 118//119
f 120//120 123//123 122//121 119//118
f 122//121 125//124 124//125 121//122
f 123//123 126//126 125//124 122//121
f 125//124 128//127 127//128 124//125
f 126//126 129//129 128//127 125//124
f 128//127 131//130 130//131 127//128
f 129//129 132//132 131//130 128//127
f 131//130 134//133 133//134 130//131
f 132//132 135//135 134//133 131//130
f 134//133 137//136 136//137 133//134
f 135//135 138//138 137//136 134//133
f 137//136 140//139 139//140 136//137
f 138//138 141//141 140//139 137//136
f 140//139 143//142 142//143 139//140
f 141//141 144//143 143//142 140//139
f 143//142 146//144 145//145 142//143
f 144//143 147//146 146//144 143//142
f 146//144 149//147 148//148 145//145
f 147//146 150//148 149//147 146//144
f 149//147 152//149 151//150 148//148
f 150//148 153//150 152//149 149//147
f 152//149 155//149 154//151 151//150
f 153//150 156//151 155//149 152//149
f 155//149 158//149 157//152 154//151
f 156//151 159//152 158//149 155//149
f 158//149 161//149 160//153 157//152
f 159//152 162//153 161//149 158//149
f 161//149 164//147 163//154 160//153
f 162//153 165//154 164//147 161//149
f 164//147 167//147 166//155 163//154
f 165//154 168//155 167//147 164//147
f 167//147 170//147 169//156 166//155
f 168//155 171//156 170//147 167//147
f 170//147 173//157 172//158 169//156
f 171//156 174//158 173//157 170//147
f 173//157 176//159 175//160 172//158
f 174//158 177//160 176//159 173//157
f 176//159 179//161 178//162 175//160
f 177//160 180//163 179//161 176//159
f 179//161 182//164 181//165 178//162
f 180//163 183//165 182//164 179//161
f 182//164 185//166 184//167 181//165
f 183//165 186//167 185//166 182//164
f 185//166 188//168 187//169 184//167
f 186//167 189//169 188//168 185//166
f 188//168 191//170 190//171 187//169
f 189//169 192//171 191//170 188//168
f 191//170 194//172 193//173 190//171
f 192//171 195//173 194//172 191//170
f 194//172 197//174 196//175 193//173
f 195//173 198//176 197//174 194//172
f 197//174 200//177 199//178 196//175
f 198//176 201//179 200//177 197//174
f 200//177 203//180 202//181 199//178
f 201//179 204//181 203//180 200//177
f 203//180 206//182 205//183 202//181
f 204//181 207//184 206//182 203//180
f 206//182 209//185 208//186 205//183
f 207//184 210//187 209//185 206//182
f 209//185 212//188 211//189 208//186
f 210//187 213//190 212//188 209//185
f 212//188 215//191 214//192 211//189
f 213//190 216//193 215//191 212//188
f 215//191 218//194 217//195 214//192
f 216//193 219//196 218//194 215//191
