# Blender v2.69 (sub 0) OBJ File: 'scene.blend'
# www.blender.org
mtllib tower.mtl
v -1.000000 -1.000000 0.000000
v -1.000000 -0.800000 0.000000
v -0.800000 -0.800000 0.000000
v -0.800000 -1.000000 0.000000
v -0.300000 -0.300000 5.000000
v -0.300000 -0.100000 5.000000
v -0.100000 -0.100000 5.000000
v -0.100000 -0.300000 5.000000
v -1.000000 1.000000 0.000000
v -0.800000 1.000000 0.000000
v -0.800000 0.800000 0.000000
v -1.000000 0.800000 0.000000
v -0.300000 0.300000 5.000000
v -0.100000 0.300000 5.000000
v -0.100000 0.100000 5.000000
v -0.300000 0.100000 5.000000
v 1.000000 1.000000 0.000000
v 1.000000 0.800000 0.000000
v 0.800000 0.800000 0.000000
v 0.800000 1.000000 0.000000
v 0.300000 0.300000 5.000000
v 0.300000 0.100000 5.000000
v 0.100000 0.100000 5.000000
v 0.100000 0.300000 5.000000
v 1.000000 -1.000000 0.000000
v 0.800000 -1.000000 0.000000
v 0.800000 -0.800000 0.000000
v 1.000000 -0.800000 0.000000
v 0.300000 -0.300000 5.000000
v 0.100000 -0.300000 5.000000
v 0.100000 -0.100000 5.000000
v 0.300000 -0.100000 5.000000
v -0.300000 -0.300000 5.200000
v -0.300000 -0.100000 5.200000
v -0.100000 -0.100000 5.200000
v -0.100000 -0.300000 5.200000
v -0.300000 0.300000 5.200000
v -0.100000 0.300000 5.200000
v -0.100000 0.100000 5.200000
v -0.300000 0.100000 5.200000
v 0.300000 0.300000 5.200000
v 0.300000 0.100000 5.200000
v 0.100000 0.100000 5.200000
v 0.100000 0.300000 5.200000
v 0.300000 -0.300000 5.200000
v 0.100000 -0.300000 5.200000
v 0.100000 -0.100000 5.200000
v 0.300000 -0.100000 5.200000
v -0.800000 -0.807794 0.089285
v -0.800000 -0.966216 0.111702
v -0.900000 -0.793784 0.188298
v -0.900000 -0.952206 0.210715
v 0.684924 -0.758169 1.581980
v 0.684924 -0.599747 1.559562
v 0.584924 -0.585736 1.658576
v 0.584924 -0.744158 1.680993
v 0.684924 -0.712360 1.895455
v 0.684924 -0.553882 1.873443
v 0.584924 -0.567640 1.774393
v 0.584924 -0.726118 1.796406
v -0.446447 -0.556705 3.016068
v -0.446447 -0.398226 2.994055
v -0.546447 -0.411984 2.895006
v -0.546447 -0.570463 2.917018
v -0.400000 -0.387794 3.089285
v -0.400000 -0.546216 3.111702
v -0.500000 -0.373784 3.188298
v -0.500000 -0.532206 3.210715
v 0.377817 -0.278817 3.859431
v 0.377817 -0.437239 3.881848
v 0.277817 -0.264806 3.958444
v 0.277817 -0.423228 3.980861
v 0.800000 0.807794 0.089285
v 0.800000 0.966216 0.111702
v 0.900000 0.793784 0.188298
v 0.900000 0.952206 0.210715
v -0.684924 0.758169 1.581980
v -0.684924 0.599747 1.559562
v -0.584924 0.585736 1.658576
v -0.584924 0.744158 1.680993
v -0.684924 0.712360 1.895455
v -0.684924 0.553882 1.873443
v -0.584924 0.567640 1.774393
v -0.584924 0.726119 1.796406
v 0.446447 0.556704 3.016068
v 0.446447 0.398226 2.994055
v 0.546447 0.411984 2.895006
v 0.546447 0.570463 2.917018
v 0.400000 0.387794 3.089285
v 0.400000 0.546216 3.111702
v 0.500000 0.373784 3.188298
v 0.500000 0.532206 3.210715
v -0.377817 0.278817 3.859431
v -0.377817 0.437239 3.881848
v -0.277817 0.264806 3.958444
v -0.277817 0.423228 3.980861
v -0.807795 -0.800000 0.089285
v -0.966216 -0.800000 0.111702
v -0.793784 -0.900000 0.188298
v -0.952206 -0.900000 0.210715
v -0.758169 0.684924 1.581980
v -0.599747 0.684924 1.559562
v -0.585736 0.584924 1.658576
v -0.744158 0.584924 1.680993
v -0.712360 0.684924 1.895455
v -0.553882 0.684924 1.873443
v -0.567640 0.584924 1.774393
v -0.726118 0.584924 1.796406
v -0.556705 -0.446447 3.016068
v -0.398226 -0.446447 2.994055
v -0.411984 -0.546447 2.895006
v -0.570463 -0.546447 2.917018
v -0.387794 -0.400000 3.089285
v -0.546216 -0.400000 3.111702
v -0.373784 -0.500000 3.188298
v -0.532206 -0.500000 3.210715
v -0.278817 0.377817 3.859431
v -0.437239 0.377817 3.881848
v -0.264806 0.277817 3.958444
v -0.423228 0.277817 3.980861
v 0.807794 0.800000 0.089285
v 0.966216 0.800000 0.111702
v 0.793784 0.900000 0.188298
v 0.952206 0.900000 0.210715
v 0.758169 -0.684924 1.581980
v 0.599747 -0.684924 1.559562
v 0.585736 -0.584924 1.658576
v 0.744158 -0.584924 1.680993
v 0.712360 -0.684924 1.895455
v 0.553882 -0.684924 1.873443
v 0.567640 -0.584924 1.774393
v 0.726118 -0.584924 1.796406
v 0.556705 0.446447 3.016068
v 0.398226 0.446447 2.994055
v 0.411984 0.546447 2.895006
v 0.570463 0.546447 2.917018
v 0.387794 0.400000 3.089285
v 0.546216 0.400000 3.111702
v 0.373784 0.500000 3.188298
v 0.532206 0.500000 3.210715
v 0.278817 -0.377817 3.859431
v 0.437239 -0.377817 3.881848
v 0.264806 -0.277817 3.958444
v 0.423228 -0.277817 3.980861
vn -0.990342 0.000000 0.138648
vn 0.000000 0.990342 -0.138648
vn 0.990342 0.000000 -0.138648
vn 0.000000 -0.990342 0.138648
vn 0.000000 0.000000 -1.000000
vn -1.000000 -0.000000 0.000000
vn 0.000000 0.990342 0.138648
vn 0.000000 -0.990342 -0.138648
vn 0.990342 0.000000 0.138648
vn -0.990342 -0.000000 -0.138648
vn 1.000000 0.000000 0.000000
vn -0.000001 0.990342 -0.138648
vn 0.000000 1.000000 0.000000
vn 0.000000 -1.000000 0.000000
vn 0.000000 0.000000 1.000000
vn 0.000003 0.000000 1.000000
vn 0.000001 0.000000 1.000000
vn -0.000003 0.000000 1.000000
vn -0.000002 0.000000 -1.000000
vn 0.000003 0.000000 -1.000000
vn -0.707106 -0.099070 -0.700132
vn 0.707107 0.099070 0.700131
vn -0.000000 0.990136 -0.140107
vn 0.000000 -0.990136 0.140107
vn -0.707107 0.099070 0.700132
vn 0.707107 -0.099070 -0.700132
vn 0.707107 -0.097284 -0.700382
vn -0.707107 0.097284 0.700382
vn -0.000000 0.990490 -0.137582
vn 0.707107 0.097285 0.700383
vn -0.707107 -0.097284 -0.700383
vn 0.000000 -0.990490 0.137582
vn -0.707107 -0.099070 -0.700132
vn 0.707105 0.099071 0.700134
vn -0.000000 0.990136 -0.140106
vn 0.000000 -0.990136 0.140106
vn 0.707107 0.099070 -0.700132
vn -0.707108 -0.099070 0.700132
vn 0.000000 -0.990136 -0.140106
vn 0.000000 0.990136 0.140107
vn 0.707107 -0.099071 0.700132
vn -0.707107 0.099070 -0.700132
vn -0.707107 0.097284 -0.700382
vn 0.707108 -0.097284 0.700381
vn 0.000000 -0.990490 -0.137582
vn -0.707107 -0.097285 0.700383
vn 0.707107 0.097284 -0.700383
vn -0.000000 0.990490 0.137582
vn -0.707105 -0.099070 0.700134
vn -0.000000 -0.990136 -0.140107
vn -0.000000 0.990137 0.140107
vn 0.707107 -0.099070 0.700132
vn -0.099070 -0.707106 -0.700132
vn 0.099071 0.707107 0.700132
vn 0.990136 -0.000000 -0.140107
vn -0.990136 0.000000 0.140107
vn 0.099070 -0.707107 0.700132
vn -0.099070 0.707107 -0.700132
vn -0.097285 0.707107 -0.700383
vn 0.097286 -0.707107 0.700382
vn 0.990490 -0.000000 -0.137582
vn 0.097286 0.707107 0.700383
vn -0.097283 -0.707107 -0.700383
vn -0.990490 0.000001 0.137582
vn -0.099070 -0.707106 -0.700133
vn 0.099070 0.707106 0.700133
vn 0.990137 -0.000000 -0.140106
vn -0.990137 0.000001 0.140106
vn 0.099070 0.707107 -0.700132
vn -0.099071 -0.707107 0.700132
vn -0.990136 0.000000 -0.140106
vn 0.990136 -0.000000 0.140107
vn -0.099071 0.707107 0.700132
vn 0.099070 -0.707107 -0.700132
vn 0.097285 -0.707107 -0.700383
vn -0.097286 0.707108 0.700381
vn -0.990490 0.000000 -0.137581
vn -0.097285 -0.707107 0.700383
vn 0.097284 0.707107 -0.700383
vn 0.990490 -0.000001 0.137582
vn 0.099071 0.707106 -0.700133
vn -0.099070 -0.707106 0.700133
vn -0.990137 -0.000000 -0.140107
vn -0.099068 0.707107 0.700132
usemtl wood
s off
f 5//1 6//1 2//1 1//1
f 6//2 7//2 3//2 2//2
f 7//3 8//3 4//3 3//3
f 8//4 5//4 1//4 4//4
f 1//5 2//5 3//5 4//5
f 23//6 31//6 47//6 43//6
f 13//7 14//7 10//7 9//7
f 14//3 15//3 11//3 10//3
f 15//8 16//8 12//8 11//8
f 16//1 13//1 9//1 12//1
f 9//5 10//5 11//5 12//5
f 13//6 16//6 40//6 37//6
f 21//9 22//9 18//9 17//9
f 22//8 23//8 19//8 18//8
f 23//10 24//10 20//10 19//10
f 24//7 21//7 17//7 20//7
f 17//5 18//5 19//5 20//5
f 29//11 32//11 48//11 45//11
f 29//4 30//4 26//4 25//4
f 30//10 31//10 27//10 26//10
f 31//12 32//12 28//12 27//12
f 32//9 29//9 25//9 28//9
f 25//5 26//5 27//5 28//5
f 14//13 13//13 37//13 38//13
f 16//6 6//6 34//6 40//6
f 30//14 29//14 45//14 46//14
f 32//11 22//11 42//11 48//11
f 31//13 7//13 35//13 47//13
f 36//15 35//15 34//15 33//15
f 40//15 39//15 38//15 37//15
f 44//16 43//16 42//16 41//16
f 48//17 47//17 46//17 45//17
f 35//15 36//15 46//15 47//15
f 35//16 39//16 40//16 34//16
f 39//18 43//18 44//18 38//18
f 43//18 47//18 48//18 42//18
f 7//11 15//11 39//11 35//11
f 8//14 30//14 46//14 36//14
f 24//13 14//13 38//13 44//13
f 22//11 21//11 41//11 42//11
f 6//6 5//6 33//6 34//6
f 21//13 24//13 44//13 41//13
f 5//14 8//14 36//14 33//14
f 15//14 23//14 43//14 39//14
f 7//5 31//5 30//5 8//5
f 7//19 6//19 16//19 15//19
f 15//5 14//5 24//5 23//5
f 23//20 22//20 32//20 31//20
f 50//21 52//21 51//21 49//21
f 53//22 54//22 55//22 56//22
f 51//23 55//23 54//23 49//23
f 50//24 53//24 56//24 52//24
f 52//25 56//25 55//25 51//25
f 49//26 54//26 53//26 50//26
f 57//27 60//27 59//27 58//27
f 61//28 62//28 63//28 64//28
f 58//29 59//29 63//29 62//29
f 57//30 58//30 62//30 61//30
f 59//31 60//31 64//31 63//31
f 60//32 57//32 61//32 64//32
f 66//33 68//33 67//33 65//33
f 70//34 69//34 71//34 72//34
f 65//35 67//35 71//35 69//35
f 68//36 66//36 70//36 72//36
f 67//25 68//25 72//25 71//25
f 66//26 65//26 69//26 70//26
f 74//37 76//37 75//37 73//37
f 77//38 78//38 79//38 80//38
f 75//39 79//39 78//39 73//39
f 74//40 77//40 80//40 76//40
f 76//41 80//41 79//41 75//41
f 73//42 78//42 77//42 74//42
f 81//43 84//43 83//43 82//43
f 85//44 86//44 87//44 88//44
f 82//45 83//45 87//45 86//45
f 81//46 82//46 86//46 85//46
f 83//47 84//47 88//47 87//47
f 84//48 81//48 85//48 88//48
f 90//37 92//37 91//37 89//37
f 94//49 93//49 95//49 96//49
f 89//50 91//50 95//50 93//50
f 92//51 90//51 94//51 96//51
f 91//52 92//52 96//52 95//52
f 90//42 89//42 93//42 94//42
f 98//53 97//53 99//53 100//53
f 101//54 104//54 103//54 102//54
f 99//55 97//55 102//55 103//55
f 98//56 100//56 104//56 101//56
f 100//57 99//57 103//57 104//57
f 97//58 98//58 101//58 102//58
f 105//59 106//59 107//59 108//59
f 109//60 112//60 111//60 110//60
f 106//61 110//61 111//61 107//61
f 105//62 109//62 110//62 106//62
f 107//63 111//63 112//63 108//63
f 108//64 112//64 109//64 105//64
f 114//65 113//65 115//65 116//65
f 118//66 120//66 119//66 117//66
f 113//67 117//67 119//67 115//67
f 116//68 120//68 118//68 114//68
f 115//57 119//57 120//57 116//57
f 114//58 118//58 117//58 113//58
f 122//69 121//69 123//69 124//69
f 125//70 128//70 127//70 126//70
f 123//71 121//71 126//71 127//71
f 122//72 124//72 128//72 125//72
f 124//73 123//73 127//73 128//73
f 121//74 122//74 125//74 126//74
f 129//75 130//75 131//75 132//75
f 133//76 136//76 135//76 134//76
f 130//77 134//77 135//77 131//77
f 129//78 133//78 134//78 130//78
f 131//79 135//79 136//79 132//79
f 132//80 136//80 133//80 129//80
f 138//81 137//81 139//81 140//81
f 142//82 144//82 143//82 141//82
f 137//83 141//83 143//83 139//83
f 140//72 144//72 142//72 138//72
f 139//84 143//84 144//84 140//84
f 138//74 142//74 141//74 137//74
